<?xml version="1.0" standalone="no"?>
<!DOCTYPE svg PUBLIC "-//W3C//DTD SVG 20010904//EN"
 "http://www.w3.org/TR/2001/REC-SVG-20010904/DTD/svg10.dtd">
<svg version="1.0" xmlns="http://www.w3.org/2000/svg"
 width="2400.000000pt" height="2400.000000pt" viewBox="0 0 2400.000000 2400.000000"
 preserveAspectRatio="xMidYMid meet">

<g transform="translate(0.000000,2400.000000) scale(0.100000,-0.100000)"
fill="#000000" fill-opacity="0.5" stroke="none">
<path d="M0 12000 l0 -12000 12000 0 12000 0 0 12000 0 12000 -12000 0 -12000
0 0 -12000z m8235 5679 c856 -64 1579 -443 2167 -1139 368 -435 588 -927 680
-1520 19 -127 22 -184 22 -465 1 -335 -8 -435 -55 -670 -61 -302 -176 -587
-328 -814 -292 -434 -815 -846 -1626 -1281 -288 -154 -348 -189 -514 -297
-566 -369 -822 -712 -821 -1101 2 -841 757 -1764 2210 -2699 326 -210 799
-488 1107 -649 81 -42 111 -63 107 -74 -3 -8 -93 -159 -200 -336 l-195 -322
-202 82 c-858 352 -1575 690 -2017 954 -768 458 -1583 1156 -2161 1852 -782
942 -1278 2005 -1478 3170 -66 387 -91 663 -98 1105 -9 589 31 1025 138 1487
197 851 610 1573 1184 2067 562 484 1285 710 2080 650z m8120 -9 c711 -82
1307 -373 1824 -890 506 -506 788 -1075 888 -1790 22 -158 25 -660 5 -820 -62
-500 -230 -917 -510 -1270 -101 -128 -320 -343 -467 -461 -305 -244 -571 -412
-1065 -674 -487 -259 -807 -472 -996 -667 -193 -198 -278 -384 -291 -635 -39
-743 545 -1574 1697 -2414 456 -332 934 -629 1645 -1022 50 -27 79 -49 77 -58
-2 -8 -91 -159 -199 -336 l-195 -321 -176 73 c-266 110 -508 215 -772 338
-191 88 -677 336 -882 450 -1205 670 -2020 1352 -2728 2281 -729 956 -1204
2116 -1349 3291 -41 327 -46 431 -46 880 1 460 8 583 56 910 139 969 526 1783
1125 2365 481 468 1052 722 1749 780 130 10 482 5 610 -10z"/>
</g>
</svg>
